<svg width="73" height="16" viewBox="0 0 73 16" fill="none" xmlns="http://www.w3.org/2000/svg">
<path d="M1.12 13V3.06H2.688V11.614H8.022V13H1.12ZM9.09978 13V5.678H10.6398V13H9.09978ZM9.09978 4.474V2.78H10.6398V4.474H9.09978ZM19.0564 13H17.5164V8.898C17.5164 8.20733 17.4044 7.708 17.1804 7.4C16.9657 7.08267 16.6437 6.924 16.2144 6.924C15.9904 6.924 15.7664 6.966 15.5424 7.05C15.3184 7.134 15.1084 7.25533 14.9124 7.414C14.7164 7.56333 14.5391 7.74533 14.3804 7.96C14.2311 8.16533 14.1144 8.394 14.0304 8.646V13H12.4904V5.678H13.8904V7.148C14.1704 6.65333 14.5764 6.266 15.1084 5.986C15.6404 5.69667 16.2284 5.552 16.8724 5.552C17.3111 5.552 17.6704 5.63133 17.9504 5.79C18.2304 5.94867 18.4497 6.168 18.6084 6.448C18.7764 6.71867 18.8931 7.036 18.9584 7.4C19.0237 7.75467 19.0564 8.13267 19.0564 8.534V13ZM25.9399 13L23.6019 9.626L22.3839 10.774V13H20.8439V2.78H22.3839V9.262L25.7439 5.692H27.4239L24.5819 8.758L27.5779 13H25.9399ZM31.449 13.14C30.8797 13.14 30.3617 13.042 29.895 12.846C29.4284 12.6407 29.027 12.3653 28.691 12.02C28.3644 11.6747 28.1077 11.2733 27.921 10.816C27.7437 10.3587 27.655 9.87333 27.655 9.36C27.655 8.84667 27.7437 8.36133 27.921 7.904C28.1077 7.43733 28.3644 7.03133 28.691 6.686C29.027 6.33133 29.4284 6.056 29.895 5.86C30.3617 5.65467 30.8844 5.552 31.463 5.552C32.0324 5.552 32.5457 5.65467 33.003 5.86C33.4697 6.06533 33.8664 6.34067 34.193 6.686C34.5197 7.022 34.767 7.41867 34.935 7.876C35.1124 8.324 35.201 8.79533 35.201 9.29C35.201 9.402 35.1964 9.50933 35.187 9.612C35.1777 9.70533 35.1684 9.78467 35.159 9.85H29.293C29.321 10.1767 29.3957 10.4707 29.517 10.732C29.6477 10.9933 29.811 11.222 30.007 11.418C30.2124 11.6047 30.441 11.7493 30.693 11.852C30.9544 11.9547 31.225 12.006 31.505 12.006C31.7104 12.006 31.911 11.9827 32.107 11.936C32.3124 11.88 32.499 11.8053 32.667 11.712C32.835 11.6093 32.9844 11.488 33.115 11.348C33.2457 11.208 33.3484 11.054 33.423 10.886L34.739 11.264C34.487 11.8147 34.067 12.2673 33.479 12.622C32.9004 12.9673 32.2237 13.14 31.449 13.14ZM33.675 8.786C33.647 8.478 33.5677 8.19333 33.437 7.932C33.3157 7.67067 33.157 7.45133 32.961 7.274C32.765 7.08733 32.5364 6.94267 32.275 6.84C32.0137 6.73733 31.7384 6.686 31.449 6.686C31.1597 6.686 30.8844 6.73733 30.623 6.84C30.371 6.94267 30.147 7.08733 29.951 7.274C29.755 7.45133 29.5964 7.67067 29.475 7.932C29.3537 8.19333 29.279 8.478 29.251 8.786H33.675ZM39.4392 13.14C38.9445 13.14 38.4872 13.042 38.0672 12.846C37.6472 12.6407 37.2832 12.3653 36.9752 12.02C36.6672 11.6747 36.4245 11.2733 36.2472 10.816C36.0792 10.3493 35.9952 9.85 35.9952 9.318C35.9952 8.80467 36.0745 8.324 36.2332 7.876C36.4012 7.41867 36.6299 7.01733 36.9192 6.672C37.2179 6.32667 37.5632 6.056 37.9552 5.86C38.3565 5.65467 38.7952 5.552 39.2712 5.552C39.8592 5.552 40.3772 5.69667 40.8252 5.986C41.2732 6.266 41.6232 6.62533 41.8752 7.064V2.78H43.4152V11.18C43.4152 11.3573 43.4432 11.4833 43.4992 11.558C43.5645 11.6327 43.6765 11.6747 43.8352 11.684V13C43.6765 13.028 43.5459 13.0467 43.4432 13.056C43.3499 13.0653 43.2705 13.07 43.2052 13.07C42.8972 13.07 42.6452 12.9907 42.4492 12.832C42.2532 12.6733 42.1459 12.468 42.1272 12.216L42.0992 11.67C41.8285 12.1273 41.4599 12.4867 40.9932 12.748C40.5265 13.0093 40.0085 13.14 39.4392 13.14ZM39.8172 11.824C40.0412 11.824 40.2652 11.7867 40.4892 11.712C40.7132 11.6373 40.9185 11.5347 41.1052 11.404C41.2919 11.2733 41.4505 11.1193 41.5812 10.942C41.7212 10.7647 41.8192 10.5733 41.8752 10.368V8.45C41.7912 8.21667 41.6699 8.002 41.5112 7.806C41.3619 7.61 41.1892 7.442 40.9932 7.302C40.7972 7.162 40.5872 7.05467 40.3632 6.98C40.1485 6.90533 39.9292 6.868 39.7052 6.868C39.3972 6.868 39.1125 6.938 38.8512 7.078C38.5992 7.218 38.3799 7.40467 38.1932 7.638C38.0065 7.87133 37.8572 8.13733 37.7452 8.436C37.6425 8.73467 37.5912 9.04267 37.5912 9.36C37.5912 9.696 37.6472 10.0133 37.7592 10.312C37.8805 10.6107 38.0439 10.872 38.2492 11.096C38.4545 11.32 38.6879 11.4973 38.9492 11.628C39.2199 11.7587 39.5092 11.824 39.8172 11.824ZM45.3713 13V5.678H46.9113V13H45.3713ZM45.3713 4.474V2.78H46.9113V4.474H45.3713ZM55.3279 13H53.7879V8.898C53.7879 8.20733 53.6759 7.708 53.4519 7.4C53.2372 7.08267 52.9152 6.924 52.4859 6.924C52.2619 6.924 52.0379 6.966 51.8139 7.05C51.5899 7.134 51.3799 7.25533 51.1839 7.414C50.9879 7.56333 50.8106 7.74533 50.6519 7.96C50.5026 8.16533 50.3859 8.394 50.3019 8.646V13H48.7619V5.678H50.1619V7.148C50.4419 6.65333 50.8479 6.266 51.3799 5.986C51.9119 5.69667 52.4999 5.552 53.1439 5.552C53.5826 5.552 53.9419 5.63133 54.2219 5.79C54.5019 5.94867 54.7212 6.168 54.8799 6.448C55.0479 6.71867 55.1646 7.036 55.2299 7.4C55.2952 7.75467 55.3279 8.13267 55.3279 8.534V13Z" fill="#464646"/>
<g clip-path="url(#clip0_1_648)">
<path d="M61.6999 12.2426L67.4369 6.50565L67.4369 11.776L68.771 11.7712V4.22876H61.2285L61.2285 5.55812L66.4941 5.56284L60.7571 11.2998L61.6999 12.2426Z" fill="#464646"/>
</g>
<defs>
<clipPath id="clip0_1_648">
<rect width="16" height="16" fill="white" transform="translate(57)"/>
</clipPath>
</defs>
</svg>
