<svg width="83" height="17" viewBox="0 0 83 17" fill="none" xmlns="http://www.w3.org/2000/svg">
<path d="M1.12 13V3.06H2.688V13H1.12ZM11.3045 13H9.76445V8.898C9.76445 8.20733 9.65245 7.708 9.42845 7.4C9.21379 7.08267 8.89179 6.924 8.46245 6.924C8.23845 6.924 8.01445 6.966 7.79045 7.05C7.56645 7.134 7.35645 7.25533 7.16045 7.414C6.96445 7.56333 6.78712 7.74533 6.62845 7.96C6.47912 8.16533 6.36245 8.394 6.27845 8.646V13H4.73845V5.678H6.13845V7.148C6.41845 6.65333 6.82445 6.266 7.35645 5.986C7.88845 5.69667 8.47645 5.552 9.12045 5.552C9.55912 5.552 9.91845 5.63133 10.1985 5.79C10.4785 5.94867 10.6978 6.168 10.8565 6.448C11.0245 6.71867 11.1411 7.036 11.2065 7.4C11.2718 7.75467 11.3045 8.13267 11.3045 8.534V13ZM15.752 13.14C15.164 13.14 14.576 13.0467 13.988 12.86C13.4093 12.664 12.91 12.3887 12.49 12.034L13.106 11.054C13.5446 11.3713 13.9786 11.614 14.408 11.782C14.8373 11.9407 15.276 12.02 15.724 12.02C16.1813 12.02 16.5406 11.9313 16.802 11.754C17.0726 11.5767 17.208 11.3247 17.208 10.998C17.208 10.69 17.0586 10.466 16.76 10.326C16.4613 10.186 15.9946 10.032 15.36 9.864C14.9026 9.74267 14.5106 9.626 14.184 9.514C13.8573 9.402 13.5913 9.27133 13.386 9.122C13.1806 8.97267 13.0313 8.8 12.938 8.604C12.8446 8.408 12.798 8.17 12.798 7.89C12.798 7.51667 12.868 7.18533 13.008 6.896C13.1573 6.60667 13.358 6.364 13.61 6.168C13.8713 5.96267 14.1746 5.80867 14.52 5.706C14.8653 5.60333 15.2386 5.552 15.64 5.552C16.1906 5.552 16.704 5.636 17.18 5.804C17.656 5.972 18.0806 6.21467 18.454 6.532L17.796 7.456C17.1146 6.91467 16.3913 6.644 15.626 6.644C15.234 6.644 14.9026 6.728 14.632 6.896C14.3706 7.05467 14.24 7.31133 14.24 7.666C14.24 7.81533 14.268 7.94133 14.324 8.044C14.38 8.14667 14.4686 8.23533 14.59 8.31C14.7206 8.38467 14.884 8.45467 15.08 8.52C15.2853 8.576 15.5373 8.64133 15.836 8.716C16.3306 8.83733 16.7553 8.95867 17.11 9.08C17.474 9.20133 17.7726 9.346 18.006 9.514C18.2393 9.67267 18.412 9.864 18.524 10.088C18.636 10.3027 18.692 10.564 18.692 10.872C18.692 11.572 18.426 12.1273 17.894 12.538C17.3713 12.9393 16.6573 13.14 15.752 13.14ZM24.1113 12.622C23.9153 12.7153 23.6446 12.8227 23.2993 12.944C22.9539 13.056 22.5853 13.112 22.1933 13.112C21.9506 13.112 21.7219 13.0793 21.5073 13.014C21.2926 12.9487 21.1013 12.8507 20.9333 12.72C20.7746 12.5893 20.6486 12.4213 20.5553 12.216C20.4619 12.0013 20.4153 11.7447 20.4153 11.446V6.868H19.4493V5.678H20.4153V3.27H21.9553V5.678H23.5513V6.868H21.9553V10.956C21.9739 11.2173 22.0533 11.4087 22.1933 11.53C22.3426 11.642 22.5246 11.698 22.7393 11.698C22.9539 11.698 23.1593 11.6607 23.3553 11.586C23.5513 11.5113 23.6959 11.4507 23.7893 11.404L24.1113 12.622ZM27.1239 13.14C26.7692 13.14 26.4379 13.084 26.1299 12.972C25.8312 12.8507 25.5699 12.6873 25.3459 12.482C25.1312 12.2767 24.9586 12.034 24.8279 11.754C24.7066 11.474 24.6459 11.1707 24.6459 10.844C24.6459 10.4987 24.7206 10.186 24.8699 9.906C25.0192 9.626 25.2292 9.38333 25.4999 9.178C25.7799 8.97267 26.1066 8.814 26.4799 8.702C26.8626 8.59 27.2826 8.534 27.7399 8.534C28.0852 8.534 28.4259 8.56667 28.7619 8.632C29.0979 8.688 29.4012 8.76733 29.6719 8.87V8.366C29.6719 7.82467 29.5179 7.40467 29.2099 7.106C28.9019 6.798 28.4586 6.644 27.8799 6.644C27.4879 6.644 27.1006 6.71867 26.7179 6.868C26.3446 7.008 25.9572 7.21333 25.5559 7.484L25.0799 6.504C26.0226 5.86933 27.0026 5.552 28.0199 5.552C29.0279 5.552 29.8119 5.80867 30.3719 6.322C30.9319 6.83533 31.2119 7.57267 31.2119 8.534V11.18C31.2119 11.5067 31.3472 11.6747 31.6179 11.684V13C31.4686 13.028 31.3379 13.0467 31.2259 13.056C31.1232 13.0653 31.0206 13.07 30.9179 13.07C30.6192 13.07 30.3859 12.9953 30.2179 12.846C30.0592 12.6967 29.9612 12.5053 29.9239 12.272L29.8819 11.81C29.5552 12.2393 29.1492 12.5707 28.6639 12.804C28.1879 13.028 27.6746 13.14 27.1239 13.14ZM27.5439 12.006C27.9172 12.006 28.2672 11.9407 28.5939 11.81C28.9299 11.67 29.1912 11.4787 29.3779 11.236C29.5739 11.068 29.6719 10.8907 29.6719 10.704V9.738C29.4106 9.63533 29.1306 9.556 28.8319 9.5C28.5426 9.444 28.2579 9.416 27.9779 9.416C27.4272 9.416 26.9746 9.53733 26.6199 9.78C26.2746 10.0133 26.1019 10.326 26.1019 10.718C26.1019 11.082 26.2372 11.39 26.5079 11.642C26.7786 11.8847 27.1239 12.006 27.5439 12.006ZM35.9783 13.07C35.4836 13.07 35.0309 12.972 34.6203 12.776C34.2096 12.5707 33.8549 12.2953 33.5563 11.95C33.2669 11.6047 33.0383 11.208 32.8703 10.76C32.7116 10.312 32.6323 9.84067 32.6323 9.346C32.6323 8.82333 32.7163 8.33333 32.8843 7.876C33.0523 7.40933 33.2856 7.008 33.5843 6.672C33.8829 6.32667 34.2376 6.056 34.6483 5.86C35.0683 5.65467 35.5303 5.552 36.0343 5.552C36.6223 5.552 37.1356 5.692 37.5743 5.972C38.0223 6.252 38.3909 6.616 38.6803 7.064V5.678H40.0383V12.79C40.0383 13.322 39.9403 13.7933 39.7443 14.204C39.5483 14.6147 39.2729 14.96 38.9183 15.24C38.5729 15.5293 38.1623 15.7487 37.6863 15.898C37.2103 16.0473 36.6969 16.122 36.1463 16.122C35.3343 16.122 34.6576 15.982 34.1163 15.702C33.5843 15.4313 33.1363 15.0487 32.7723 14.554L33.6403 13.742C33.9203 14.134 34.2796 14.4327 34.7183 14.638C35.1663 14.8433 35.6423 14.946 36.1463 14.946C36.4636 14.946 36.7623 14.904 37.0423 14.82C37.3316 14.736 37.5836 14.6053 37.7983 14.428C38.0129 14.2507 38.1809 14.0267 38.3023 13.756C38.4329 13.4853 38.4983 13.1633 38.4983 12.79V11.67C38.2369 12.118 37.8776 12.4633 37.4203 12.706C36.9629 12.9487 36.4823 13.07 35.9783 13.07ZM36.4823 11.824C36.7156 11.824 36.9396 11.7867 37.1543 11.712C37.3689 11.628 37.5649 11.5207 37.7423 11.39C37.9289 11.25 38.0876 11.096 38.2183 10.928C38.3489 10.7507 38.4423 10.564 38.4983 10.368V8.45C38.4049 8.21667 38.2836 8.00667 38.1343 7.82C37.9849 7.624 37.8123 7.456 37.6163 7.316C37.4296 7.176 37.2289 7.06867 37.0143 6.994C36.7996 6.91 36.5849 6.868 36.3703 6.868C36.0343 6.868 35.7309 6.94267 35.4603 7.092C35.1989 7.232 34.9749 7.42333 34.7883 7.666C34.6016 7.89933 34.4569 8.16533 34.3543 8.464C34.2516 8.76267 34.2003 9.07067 34.2003 9.388C34.2003 9.724 34.2563 10.0413 34.3683 10.34C34.4896 10.6293 34.6529 10.886 34.8583 11.11C35.0636 11.3247 35.3016 11.4973 35.5723 11.628C35.8523 11.7587 36.1556 11.824 36.4823 11.824ZM46.0009 7.008C45.4036 7.02667 44.8716 7.16667 44.4049 7.428C43.9476 7.68 43.6209 8.044 43.4249 8.52V13H41.8849V5.678H43.3129V7.316C43.5649 6.812 43.8916 6.41067 44.2929 6.112C44.7036 5.804 45.1423 5.636 45.6089 5.608C45.7023 5.608 45.7769 5.608 45.8329 5.608C45.8983 5.608 45.9543 5.61267 46.0009 5.622V7.008ZM48.9716 13.14C48.6169 13.14 48.2856 13.084 47.9776 12.972C47.6789 12.8507 47.4176 12.6873 47.1936 12.482C46.9789 12.2767 46.8062 12.034 46.6756 11.754C46.5542 11.474 46.4936 11.1707 46.4936 10.844C46.4936 10.4987 46.5682 10.186 46.7176 9.906C46.8669 9.626 47.0769 9.38333 47.3476 9.178C47.6276 8.97267 47.9542 8.814 48.3276 8.702C48.7102 8.59 49.1302 8.534 49.5876 8.534C49.9329 8.534 50.2736 8.56667 50.6096 8.632C50.9456 8.688 51.2489 8.76733 51.5196 8.87V8.366C51.5196 7.82467 51.3656 7.40467 51.0576 7.106C50.7496 6.798 50.3062 6.644 49.7276 6.644C49.3356 6.644 48.9482 6.71867 48.5656 6.868C48.1922 7.008 47.8049 7.21333 47.4036 7.484L46.9276 6.504C47.8702 5.86933 48.8502 5.552 49.8676 5.552C50.8756 5.552 51.6596 5.80867 52.2196 6.322C52.7796 6.83533 53.0596 7.57267 53.0596 8.534V11.18C53.0596 11.5067 53.1949 11.6747 53.4656 11.684V13C53.3162 13.028 53.1856 13.0467 53.0736 13.056C52.9709 13.0653 52.8682 13.07 52.7656 13.07C52.4669 13.07 52.2336 12.9953 52.0656 12.846C51.9069 12.6967 51.8089 12.5053 51.7716 12.272L51.7296 11.81C51.4029 12.2393 50.9969 12.5707 50.5116 12.804C50.0356 13.028 49.5222 13.14 48.9716 13.14ZM49.3916 12.006C49.7649 12.006 50.1149 11.9407 50.4416 11.81C50.7776 11.67 51.0389 11.4787 51.2256 11.236C51.4216 11.068 51.5196 10.8907 51.5196 10.704V9.738C51.2582 9.63533 50.9782 9.556 50.6796 9.5C50.3902 9.444 50.1056 9.416 49.8256 9.416C49.2749 9.416 48.8222 9.53733 48.4676 9.78C48.1222 10.0133 47.9496 10.326 47.9496 10.718C47.9496 11.082 48.0849 11.39 48.3556 11.642C48.6262 11.8847 48.9716 12.006 49.3916 12.006ZM66.1279 13H64.5879V8.898C64.5879 8.21667 64.4759 7.71733 64.2519 7.4C64.0279 7.08267 63.7012 6.924 63.2719 6.924C62.8332 6.924 62.4319 7.08733 62.0679 7.414C61.7132 7.73133 61.4566 8.14667 61.2979 8.66V13H59.7579V8.898C59.7579 8.20733 59.6459 7.708 59.4219 7.4C59.1979 7.08267 58.8759 6.924 58.4559 6.924C58.0172 6.924 57.6159 7.08267 57.2519 7.4C56.8879 7.71733 56.6266 8.13267 56.4679 8.646V13H54.9279V5.678H56.3279V7.148C56.6172 6.63467 56.9952 6.24267 57.4619 5.972C57.9379 5.692 58.4792 5.552 59.0859 5.552C59.6926 5.552 60.1686 5.71067 60.5139 6.028C60.8686 6.34533 61.0879 6.742 61.1719 7.218C61.4799 6.67667 61.8672 6.266 62.3339 5.986C62.8006 5.69667 63.3326 5.552 63.9299 5.552C64.3592 5.552 64.7139 5.636 64.9939 5.804C65.2832 5.96267 65.5119 6.17733 65.6799 6.448C65.8479 6.71867 65.9646 7.036 66.0299 7.4C66.0952 7.75467 66.1279 8.13267 66.1279 8.534V13Z" fill="#464646"/>
<g clip-path="url(#clip0_1_653)">
<path d="M71.6999 12.2426L77.4369 6.50565L77.4369 11.776L78.771 11.7712V4.22876H71.2285L71.2285 5.55812L76.4941 5.56284L70.7571 11.2998L71.6999 12.2426Z" fill="#464646"/>
</g>
<defs>
<clipPath id="clip0_1_653">
<rect width="16" height="16" fill="white" transform="translate(67)"/>
</clipPath>
</defs>
</svg>
