<svg width="61" height="16" viewBox="0 0 61 16" fill="none" xmlns="http://www.w3.org/2000/svg">
<path d="M8.078 11.768C7.238 12.636 6.272 13.07 5.18 13.07C4.51733 13.07 3.90133 12.9347 3.332 12.664C2.76267 12.384 2.268 12.0107 1.848 11.544C1.428 11.0773 1.09667 10.536 0.854 9.92C0.620667 9.304 0.504 8.66 0.504 7.988C0.504 7.316 0.620667 6.67667 0.854 6.07C1.09667 5.46333 1.428 4.93133 1.848 4.474C2.268 4.01667 2.76733 3.65733 3.346 3.396C3.92467 3.12533 4.55467 2.99 5.236 2.99C6.188 2.99 6.986 3.19067 7.63 3.592C8.274 3.984 8.75933 4.50667 9.086 5.16L7.882 6.028C7.61133 5.48667 7.238 5.08067 6.762 4.81C6.286 4.53933 5.76333 4.404 5.194 4.404C4.72733 4.404 4.30267 4.50667 3.92 4.712C3.53733 4.908 3.21067 5.174 2.94 5.51C2.66933 5.83667 2.45933 6.21933 2.31 6.658C2.17 7.09667 2.1 7.554 2.1 8.03C2.1 8.534 2.17933 9.00533 2.338 9.444C2.506 9.88267 2.73 10.2653 3.01 10.592C3.29933 10.9187 3.64 11.18 4.032 11.376C4.424 11.5627 4.84867 11.656 5.306 11.656C5.81 11.656 6.29067 11.5393 6.748 11.306C7.21467 11.0727 7.658 10.704 8.078 10.2V9.136H5.992V7.974H9.394V13H8.078V11.768ZM10.9865 13V5.678H12.5265V13H10.9865ZM10.9865 4.474V2.78H12.5265V4.474H10.9865ZM18.4511 12.622C18.2551 12.7153 17.9845 12.8227 17.6391 12.944C17.2938 13.056 16.9251 13.112 16.5331 13.112C16.2905 13.112 16.0618 13.0793 15.8471 13.014C15.6325 12.9487 15.4411 12.8507 15.2731 12.72C15.1145 12.5893 14.9885 12.4213 14.8951 12.216C14.8018 12.0013 14.7551 11.7447 14.7551 11.446V6.868H13.7891V5.678H14.7551V3.27H16.2951V5.678H17.8911V6.868H16.2951V10.956C16.3138 11.2173 16.3931 11.4087 16.5331 11.53C16.6825 11.642 16.8645 11.698 17.0791 11.698C17.2938 11.698 17.4991 11.6607 17.6951 11.586C17.8911 11.5113 18.0358 11.4507 18.1291 11.404L18.4511 12.622ZM26.0838 13H24.5438V8.898C24.5438 8.226 24.4224 7.73133 24.1798 7.414C23.9464 7.08733 23.6058 6.924 23.1578 6.924C22.9431 6.924 22.7284 6.966 22.5138 7.05C22.2991 7.134 22.0938 7.25533 21.8978 7.414C21.7111 7.56333 21.5431 7.74533 21.3938 7.96C21.2444 8.16533 21.1324 8.394 21.0578 8.646V13H19.5177V2.78H21.0578V7.148C21.3378 6.644 21.7158 6.252 22.1917 5.972C22.6771 5.692 23.2044 5.552 23.7738 5.552C24.2311 5.552 24.6044 5.636 24.8938 5.804C25.1924 5.96267 25.4304 6.17733 25.6078 6.448C25.7851 6.71867 25.9064 7.036 25.9718 7.4C26.0464 7.75467 26.0838 8.13267 26.0838 8.534V13ZM30.1253 13.14C29.3599 13.14 28.7813 12.8927 28.3893 12.398C27.9973 11.894 27.8013 11.1473 27.8013 10.158V5.678H29.3413V9.85C29.3413 11.166 29.8079 11.824 30.7413 11.824C31.1799 11.824 31.5953 11.6887 31.9873 11.418C32.3793 11.1473 32.6826 10.7553 32.8973 10.242V5.678H34.4373V11.18C34.4373 11.3573 34.4653 11.4833 34.5213 11.558C34.5866 11.6327 34.6986 11.6747 34.8573 11.684V13C34.6986 13.028 34.5679 13.0467 34.4653 13.056C34.3626 13.0653 34.2646 13.07 34.1713 13.07C33.8913 13.07 33.6533 12.9953 33.4573 12.846C33.2613 12.6873 33.1586 12.4867 33.1493 12.244L33.1213 11.516C32.7946 12.048 32.3699 12.454 31.8473 12.734C31.3246 13.0047 30.7506 13.14 30.1253 13.14ZM40.3505 13.14C39.7905 13.14 39.2818 13.0093 38.8245 12.748C38.3765 12.4773 38.0218 12.118 37.7605 11.67V13H36.4025V2.78H37.9425V7.064C38.2318 6.59733 38.5912 6.22867 39.0205 5.958C39.4592 5.68733 39.9725 5.552 40.5605 5.552C41.0458 5.552 41.4892 5.65933 41.8905 5.874C42.2918 6.07933 42.6325 6.35933 42.9125 6.714C43.2018 7.05933 43.4212 7.46533 43.5705 7.932C43.7292 8.38933 43.8085 8.87 43.8085 9.374C43.8085 9.89667 43.7198 10.3867 43.5425 10.844C43.3652 11.3013 43.1225 11.7027 42.8145 12.048C42.5065 12.384 42.1378 12.65 41.7085 12.846C41.2885 13.042 40.8358 13.14 40.3505 13.14ZM39.9445 11.824C40.2805 11.824 40.5885 11.7587 40.8685 11.628C41.1485 11.488 41.3865 11.306 41.5825 11.082C41.7878 10.858 41.9465 10.6013 42.0585 10.312C42.1705 10.0133 42.2265 9.70067 42.2265 9.374C42.2265 9.04733 42.1705 8.73467 42.0585 8.436C41.9558 8.128 41.8065 7.862 41.6105 7.638C41.4238 7.40467 41.1952 7.218 40.9245 7.078C40.6632 6.938 40.3738 6.868 40.0565 6.868C39.5805 6.868 39.1558 7.022 38.7825 7.33C38.4185 7.638 38.1385 8.01133 37.9425 8.45V10.382C37.9985 10.5967 38.0965 10.7927 38.2365 10.97C38.3765 11.138 38.5398 11.2873 38.7265 11.418C38.9132 11.5487 39.1138 11.6513 39.3285 11.726C39.5432 11.7913 39.7485 11.824 39.9445 11.824Z" fill="#464646"/>
<g clip-path="url(#clip0_1_643)">
<path d="M49.6999 12.2426L55.4369 6.50565L55.4369 11.776L56.771 11.7712V4.22876H49.2285L49.2285 5.55812L54.4941 5.56284L48.7571 11.2998L49.6999 12.2426Z" fill="#464646"/>
</g>
<defs>
<clipPath id="clip0_1_643">
<rect width="16" height="16" fill="white" transform="translate(45)"/>
</clipPath>
</defs>
</svg>
