<svg width="77" height="16" viewBox="0 0 77 16" fill="none" xmlns="http://www.w3.org/2000/svg">
<path d="M0.49 7.96C0.49 7.36267 0.597333 6.77 0.812 6.182C1.02667 5.58467 1.33933 5.05267 1.75 4.586C2.17 4.11 2.67867 3.72733 3.276 3.438C3.87333 3.14867 4.55 3.004 5.306 3.004C6.21133 3.004 6.986 3.20467 7.63 3.606C8.274 4.00733 8.75933 4.53 9.086 5.174L7.854 6C7.714 5.70133 7.546 5.44933 7.35 5.244C7.154 5.03867 6.93933 4.87533 6.706 4.754C6.47267 4.63267 6.23 4.54867 5.978 4.502C5.726 4.446 5.48333 4.418 5.25 4.418C4.72733 4.418 4.27 4.52533 3.878 4.74C3.486 4.94533 3.15467 5.22067 2.884 5.566C2.62267 5.91133 2.422 6.29867 2.282 6.728C2.15133 7.15733 2.086 7.58667 2.086 8.016C2.086 8.50133 2.16533 8.96333 2.324 9.402C2.48267 9.84067 2.702 10.228 2.982 10.564C3.27133 10.9 3.612 11.1707 4.004 11.376C4.396 11.572 4.82533 11.67 5.292 11.67C5.53467 11.67 5.782 11.642 6.034 11.586C6.29533 11.5207 6.54267 11.4227 6.776 11.292C7.01867 11.152 7.238 10.9793 7.434 10.774C7.63933 10.5687 7.80733 10.3213 7.938 10.032L9.24 10.774C9.08133 11.1473 8.85733 11.4787 8.568 11.768C8.27867 12.048 7.952 12.286 7.588 12.482C7.224 12.678 6.83667 12.8273 6.426 12.93C6.02467 13.0327 5.628 13.084 5.236 13.084C4.536 13.084 3.89667 12.9347 3.318 12.636C2.73933 12.3373 2.24 11.95 1.82 11.474C1.4 10.9887 1.07333 10.4427 0.84 9.836C0.606667 9.22 0.49 8.59467 0.49 7.96ZM12.7483 13.14C11.983 13.14 11.4043 12.8927 11.0123 12.398C10.6203 11.894 10.4243 11.1473 10.4243 10.158V5.678H11.9643V9.85C11.9643 11.166 12.431 11.824 13.3643 11.824C13.803 11.824 14.2183 11.6887 14.6103 11.418C15.0023 11.1473 15.3056 10.7553 15.5203 10.242V5.678H17.0603V11.18C17.0603 11.3573 17.0883 11.4833 17.1443 11.558C17.2096 11.6327 17.3216 11.6747 17.4803 11.684V13C17.3216 13.028 17.191 13.0467 17.0883 13.056C16.9856 13.0653 16.8876 13.07 16.7943 13.07C16.5143 13.07 16.2763 12.9953 16.0803 12.846C15.8843 12.6873 15.7816 12.4867 15.7723 12.244L15.7443 11.516C15.4176 12.048 14.993 12.454 14.4703 12.734C13.9476 13.0047 13.3736 13.14 12.7483 13.14ZM23.1416 7.008C22.5442 7.02667 22.0122 7.16667 21.5456 7.428C21.0882 7.68 20.7616 8.044 20.5656 8.52V13H19.0256V5.678H20.4536V7.316C20.7056 6.812 21.0322 6.41067 21.4336 6.112C21.8442 5.804 22.2829 5.636 22.7496 5.608C22.8429 5.608 22.9176 5.608 22.9736 5.608C23.0389 5.608 23.0949 5.61267 23.1416 5.622V7.008ZM28.3779 7.008C27.7806 7.02667 27.2486 7.16667 26.7819 7.428C26.3246 7.68 25.9979 8.044 25.8019 8.52V13H24.2619V5.678H25.6899V7.316C25.9419 6.812 26.2686 6.41067 26.6699 6.112C27.0806 5.804 27.5192 5.636 27.9859 5.608C28.0792 5.608 28.1539 5.608 28.2099 5.608C28.2752 5.608 28.3312 5.61267 28.3779 5.622V7.008ZM30.6182 4.628L29.6102 4.32L30.4082 2.78H31.8782L30.6182 4.628ZM29.4982 13V5.678H31.0382V13H29.4982ZM32.4128 9.332C32.4128 8.81867 32.5015 8.33333 32.6788 7.876C32.8562 7.41867 33.1082 7.01733 33.4348 6.672C33.7708 6.32667 34.1722 6.056 34.6388 5.86C35.1055 5.65467 35.6282 5.552 36.2068 5.552C36.9628 5.552 37.6115 5.72 38.1528 6.056C38.7035 6.38267 39.1142 6.82133 39.3848 7.372L37.8868 7.848C37.7095 7.54 37.4715 7.302 37.1728 7.134C36.8742 6.95667 36.5428 6.868 36.1788 6.868C35.8708 6.868 35.5815 6.92867 35.3108 7.05C35.0495 7.17133 34.8208 7.344 34.6248 7.568C34.4288 7.78267 34.2748 8.03933 34.1628 8.338C34.0508 8.63667 33.9948 8.968 33.9948 9.332C33.9948 9.68667 34.0508 10.018 34.1628 10.326C34.2842 10.6247 34.4428 10.886 34.6388 11.11C34.8442 11.334 35.0775 11.5113 35.3388 11.642C35.6095 11.7633 35.8942 11.824 36.1928 11.824C36.3795 11.824 36.5662 11.8007 36.7528 11.754C36.9395 11.698 37.1075 11.6233 37.2568 11.53C37.4155 11.4367 37.5508 11.3293 37.6628 11.208C37.7842 11.0867 37.8728 10.956 37.9288 10.816L39.4408 11.264C39.1982 11.8147 38.7922 12.2673 38.2228 12.622C37.6535 12.9673 36.9815 13.14 36.2068 13.14C35.6375 13.14 35.1195 13.0373 34.6528 12.832C34.1862 12.6267 33.7848 12.3513 33.4488 12.006C33.1222 11.6513 32.8655 11.2453 32.6788 10.788C32.5015 10.3307 32.4128 9.84533 32.4128 9.332ZM42.9632 13.14C42.1978 13.14 41.6192 12.8927 41.2272 12.398C40.8352 11.894 40.6392 11.1473 40.6392 10.158V5.678H42.1792V9.85C42.1792 11.166 42.6458 11.824 43.5792 11.824C44.0178 11.824 44.4332 11.6887 44.8252 11.418C45.2172 11.1473 45.5205 10.7553 45.7352 10.242V5.678H47.2752V11.18C47.2752 11.3573 47.3032 11.4833 47.3592 11.558C47.4245 11.6327 47.5365 11.6747 47.6952 11.684V13C47.5365 13.028 47.4058 13.0467 47.3032 13.056C47.2005 13.0653 47.1025 13.07 47.0092 13.07C46.7292 13.07 46.4912 12.9953 46.2952 12.846C46.0992 12.6873 45.9965 12.4867 45.9872 12.244L45.9592 11.516C45.6325 12.048 45.2078 12.454 44.6852 12.734C44.1625 13.0047 43.5885 13.14 42.9632 13.14ZM49.2544 2.78H50.7944V10.886C50.7944 11.1567 50.8644 11.3713 51.0044 11.53C51.1444 11.6793 51.3404 11.754 51.5924 11.754C51.6951 11.754 51.8117 11.7353 51.9424 11.698C52.0824 11.6607 52.2131 11.6187 52.3344 11.572L52.5584 12.776C52.3344 12.8787 52.0684 12.958 51.7604 13.014C51.4524 13.0793 51.1771 13.112 50.9344 13.112C50.4024 13.112 49.9871 12.9673 49.6884 12.678C49.3991 12.3887 49.2544 11.978 49.2544 11.446V2.78ZM56.7413 13.14C56.1627 13.14 55.64 13.0373 55.1733 12.832C54.716 12.6267 54.324 12.3513 53.9973 12.006C53.6707 11.6607 53.4187 11.2593 53.2413 10.802C53.064 10.3353 52.9753 9.85 52.9753 9.346C52.9753 8.842 53.064 8.36133 53.2413 7.904C53.4187 7.43733 53.6707 7.03133 53.9973 6.686C54.3333 6.34067 54.73 6.06533 55.1873 5.86C55.654 5.65467 56.172 5.552 56.7413 5.552C57.3107 5.552 57.824 5.65467 58.2813 5.86C58.748 6.06533 59.1447 6.34067 59.4713 6.686C59.8073 7.03133 60.064 7.43733 60.2413 7.904C60.4187 8.36133 60.5073 8.842 60.5073 9.346C60.5073 9.85 60.4187 10.3353 60.2413 10.802C60.064 11.2593 59.8073 11.6607 59.4713 12.006C59.1447 12.3513 58.748 12.6267 58.2813 12.832C57.824 13.0373 57.3107 13.14 56.7413 13.14ZM54.5573 9.36C54.5573 9.71467 54.6133 10.0413 54.7253 10.34C54.8373 10.6387 54.9913 10.9 55.1873 11.124C55.3833 11.3387 55.612 11.5113 55.8733 11.642C56.144 11.7633 56.4333 11.824 56.7413 11.824C57.0493 11.824 57.334 11.7633 57.5953 11.642C57.866 11.5113 58.0993 11.334 58.2953 11.11C58.4913 10.886 58.6453 10.6247 58.7573 10.326C58.8693 10.0273 58.9253 9.70067 58.9253 9.346C58.9253 9.00067 58.8693 8.67867 58.7573 8.38C58.6453 8.072 58.4913 7.806 58.2953 7.582C58.0993 7.358 57.866 7.18533 57.5953 7.064C57.334 6.93333 57.0493 6.868 56.7413 6.868C56.4427 6.868 56.158 6.93333 55.8873 7.064C55.626 7.19467 55.3973 7.372 55.2013 7.596C55.0053 7.82 54.8467 8.086 54.7253 8.394C54.6133 8.69267 54.5573 9.01467 54.5573 9.36Z" fill="#464646"/>
<g clip-path="url(#clip0_1_658)">
<path d="M65.6999 12.2426L71.4369 6.50565L71.4369 11.776L72.771 11.7712V4.22876H65.2285L65.2285 5.55812L70.4941 5.56284L64.7571 11.2998L65.6999 12.2426Z" fill="#464646"/>
</g>
<defs>
<clipPath id="clip0_1_658">
<rect width="16" height="16" fill="white" transform="translate(61)"/>
</clipPath>
</defs>
</svg>
