<svg width="32" height="32" viewBox="0 0 32 32" fill="none" xmlns="http://www.w3.org/2000/svg">
<g clip-path="url(#clip0_1_723)">
<path d="M16.0001 20.2667C18.3565 20.2667 20.2667 18.3564 20.2667 16C20.2667 13.6436 18.3565 11.7333 16.0001 11.7333C13.6436 11.7333 11.7334 13.6436 11.7334 16C11.7334 18.3564 13.6436 20.2667 16.0001 20.2667Z" fill="#2A7AE4"/>
<path d="M12.0001 2.66669L9.56008 5.33335H5.33341C3.86675 5.33335 2.66675 6.53335 2.66675 8.00002V24C2.66675 25.4667 3.86675 26.6667 5.33341 26.6667H26.6667C28.1334 26.6667 29.3334 25.4667 29.3334 24V8.00002C29.3334 6.53335 28.1334 5.33335 26.6667 5.33335H22.4401L20.0001 2.66669H12.0001ZM16.0001 22.6667C12.3201 22.6667 9.33342 19.68 9.33342 16C9.33342 12.32 12.3201 9.33335 16.0001 9.33335C19.6801 9.33335 22.6667 12.32 22.6667 16C22.6667 19.68 19.6801 22.6667 16.0001 22.6667Z" fill="#2A7AE4"/>
</g>
<defs>
<clipPath id="clip0_1_723">
<rect width="32" height="32" fill="white"/>
</clipPath>
</defs>
</svg>
